<?xml version="1.0" encoding="UTF-8"?>
<svg xmlns="http://www.w3.org/2000/svg" width="122" height="32" viewBox="0 0 122 32" fill="none">
  <g clip-path="url(#clip0_1003_3452)">
    <path d="M12.0834 9.91667L9.16675 14.5833H15.0001L12.0834 9.91667Z" stroke="#FF7C2C" stroke-miterlimit="10" stroke-linecap="round" stroke-linejoin="round"></path>
    <path d="M21.4167 9.91667L24.3333 14.5833H18.5L21.4167 9.91667Z" stroke="#FF7C2C" stroke-miterlimit="10" stroke-linecap="round" stroke-linejoin="round"></path>
    <path d="M10.345 18.1895C10.3776 19.8053 11.1371 21.2567 12.3318 22.2962L12.9198 21.2042L14.9743 22.3102L14.3431 23.4838C15.0886 23.7603 15.9018 23.9167 16.7558 23.9167C16.9635 23.9167 17.1595 23.8793 17.3613 23.8618L17.142 22.3498L19.4508 22.0138L19.6328 23.2692C21.6885 22.323 23.1223 20.419 23.1666 18.1895H10.345Z" stroke="#FF7C2C" stroke-miterlimit="10" stroke-linecap="round" stroke-linejoin="round"></path>
    <path d="M18.4999 6.62083V6.41667C18.4999 3.8395 16.4104 1.75 13.8333 1.75V4.08333C15.1224 4.08333 16.1666 5.1275 16.1666 6.41667V6.9965" stroke="#FF7C2C" stroke-miterlimit="10" stroke-linecap="round" stroke-linejoin="round"></path>
    <path d="M20.25 6.41667C19.0052 6.41667 17.8222 6.71534 16.75 7.24734C15.6778 6.71534 14.4948 6.41667 13.25 6.41667C8.41767 6.41667 4.5 10.857 4.5 16.3333C4.5 21.8097 8.41767 26.25 13.25 26.25C14.4948 26.25 19.0052 26.25 20.25 26.25C25.0823 26.25 29 21.8097 29 16.3333C29 10.857 25.0823 6.41667 20.25 6.41667Z" stroke="#FF7C2C" stroke-miterlimit="10" stroke-linecap="round" stroke-linejoin="round"></path>
  </g>
  <path d="M43.1523 8.46875C44.0768 8.19531 44.6107 8.36458 44.7539 8.97656C44.806 9.19792 44.819 9.38021 44.793 9.52344C44.7669 9.66667 44.7539 9.82292 44.7539 9.99219V10.5781C44.7539 11.112 44.7344 11.4896 44.6953 11.7109C44.6562 11.9193 44.6497 12.1667 44.6758 12.4531C44.7018 12.7396 44.6888 13.013 44.6367 13.2734C44.5977 13.5339 44.6042 13.7096 44.6562 13.8008C44.7083 13.8919 44.7734 13.9635 44.8516 14.0156C44.9557 14.0938 45.0924 14.1328 45.2617 14.1328C45.5482 14.1328 45.737 14.0026 45.8281 13.7422C45.8672 13.625 45.8672 13.4297 45.8281 13.1562C45.8021 12.8698 45.8021 12.5898 45.8281 12.3164C45.8542 12.043 45.8477 11.7956 45.8086 11.5742C45.7826 11.3398 45.7565 11.0924 45.7305 10.832C45.7174 10.5716 45.7109 10.3047 45.7109 10.0312C45.7109 9.39323 45.7826 8.98958 45.9258 8.82031C46.069 8.65104 46.2904 8.52734 46.5898 8.44922C46.9023 8.35807 47.2344 8.3125 47.5859 8.3125C48.4062 8.3125 48.9466 8.49479 49.207 8.85938C49.3242 9.01562 49.3828 9.17188 49.3828 9.32812C49.3828 9.48438 49.3763 9.60807 49.3633 9.69922C49.3503 9.77734 49.3503 9.875 49.3633 9.99219C49.4023 10.3047 49.3828 10.6172 49.3047 10.9297C49.2266 11.2422 49.168 11.5482 49.1289 11.8477C49.1029 12.1471 49.0833 12.4727 49.0703 12.8242C49.0312 13.4102 49.0117 14.0352 49.0117 14.6992C49.0117 15.8841 48.9661 16.6328 48.875 16.9453C48.6536 17.6094 48.6146 18.1107 48.7578 18.4492C48.7969 18.5404 48.8099 18.651 48.7969 18.7812C48.7969 18.8984 48.7904 19.0286 48.7773 19.1719C48.7773 19.3021 48.7773 19.4323 48.7773 19.5625C48.7773 19.6927 48.8099 19.8424 48.875 20.0117C48.9922 20.3633 48.8815 20.7344 48.543 21.125C48.4258 21.2552 48.3737 21.4831 48.3867 21.8086C48.3997 22.1211 48.4062 22.3555 48.4062 22.5117C48.4062 22.6549 48.3672 22.7656 48.2891 22.8438C48.224 22.9089 48.0742 22.9805 47.8398 23.0586C47.6185 23.1367 47.3711 23.1888 47.0977 23.2148C46.4076 23.2799 45.9714 23.1432 45.7891 22.8047C45.6328 22.5182 45.5938 21.9518 45.6719 21.1055C45.763 20.2461 45.8216 19.6016 45.8477 19.1719C45.8867 18.7422 45.8802 18.4427 45.8281 18.2734C45.776 18.1042 45.6914 18 45.5742 17.9609C45.457 17.9219 45.3333 17.9089 45.2031 17.9219C44.9167 17.9479 44.7214 18.0326 44.6172 18.1758C44.6302 18.4753 44.6367 18.8919 44.6367 19.4258C44.6367 19.9466 44.6302 20.474 44.6172 21.0078C44.5781 22.3229 44.526 23.0195 44.4609 23.0977C44.4089 23.1888 44.3047 23.2539 44.1484 23.293C43.9922 23.332 43.8229 23.3516 43.6406 23.3516C43.224 23.3776 42.9505 23.306 42.8203 23.1367C42.6901 22.9805 42.5859 22.8568 42.5078 22.7656C42.4297 22.6745 42.319 22.6094 42.1758 22.5703C42.0456 22.5182 41.9674 22.4401 41.9414 22.3359C41.9154 22.2318 41.8893 22.1016 41.8633 21.9453C41.7982 21.5807 41.7982 21.3529 41.8633 21.2617C41.9284 21.1576 41.9609 21.0208 41.9609 20.8516C41.974 20.6823 41.9544 20.5781 41.9023 20.5391C41.8503 20.487 41.7982 20.2982 41.7461 19.9727C41.707 19.6471 41.6745 19.2826 41.6484 18.8789C41.6224 18.4753 41.6094 18.0911 41.6094 17.7266C41.6094 17.349 41.6484 17.069 41.7266 16.8867C41.9089 16.4701 41.9219 16.0664 41.7656 15.6758C41.6224 15.2852 41.5378 14.9792 41.5117 14.7578C41.4857 14.5234 41.4661 14.3151 41.4531 14.1328C41.4401 13.651 41.4141 13.3451 41.375 13.2148C41.3359 13.0846 41.3099 12.9089 41.2969 12.6875C41.2839 12.4531 41.2773 12.2057 41.2773 11.9453C41.2773 11.6849 41.2773 11.418 41.2773 11.1445C41.2904 10.8711 41.2839 10.5651 41.2578 10.2266C41.2448 9.88802 41.2513 9.54948 41.2773 9.21094C41.3164 8.8724 41.4336 8.61198 41.6289 8.42969C41.8372 8.2474 42.0846 8.13672 42.3711 8.09766C42.6706 8.05859 42.931 8.18229 43.1523 8.46875ZM57.8398 23.1172C57.7617 23.2604 57.6576 23.3646 57.5273 23.4297C57.3971 23.5078 57.2669 23.4948 57.1367 23.3906C57.0065 23.2995 56.9089 23.2604 56.8438 23.2734C56.7917 23.2865 56.7396 23.2995 56.6875 23.3125C56.5703 23.3255 56.4531 23.2409 56.3359 23.0586C56.2188 22.8763 56.1536 22.7331 56.1406 22.6289C56.1276 22.5117 56.1276 22.401 56.1406 22.2969C56.1927 22.0625 56.1536 21.8542 56.0234 21.6719C55.9062 21.4896 55.8216 21.3529 55.7695 21.2617C55.7305 21.1706 55.7109 21.0404 55.7109 20.8711C55.7109 20.6888 55.6979 20.5781 55.6719 20.5391C55.6589 20.487 55.6458 20.4479 55.6328 20.4219C55.5677 20.3047 55.5417 20.1224 55.5547 19.875C55.5807 19.6276 55.5482 19.4583 55.457 19.3672C55.3659 19.263 55.2422 19.1849 55.0859 19.1328C54.9427 19.0807 54.8255 19.1003 54.7344 19.1914C54.6562 19.2695 54.5781 19.3672 54.5 19.4844C54.4349 19.6016 54.3503 19.7057 54.2461 19.7969C54.1419 19.875 54.0052 19.8945 53.8359 19.8555C53.6797 19.8164 53.5039 19.8555 53.3086 19.9727C53.1133 20.0898 52.9961 20.2331 52.957 20.4023C52.918 20.5586 52.8724 20.7214 52.8203 20.8906C52.7682 21.0599 52.7487 21.2161 52.7617 21.3594C52.7878 21.5026 52.7878 21.6458 52.7617 21.7891C52.7487 21.9193 52.7161 22.0495 52.6641 22.1797C52.5599 22.5052 52.4362 22.681 52.293 22.707C52.1758 22.7201 52.0521 22.7201 51.9219 22.707C51.7786 22.9674 51.6094 23.1237 51.4141 23.1758C50.8802 23.293 50.5612 23.2083 50.457 22.9219C50.3919 22.7526 50.3529 22.5312 50.3398 22.2578C50.3138 21.7109 50.2552 21.3398 50.1641 21.1445C50.0729 20.9492 50.0469 20.7148 50.0859 20.4414C50.138 20.168 50.1576 19.8945 50.1445 19.6211C50.1315 19.3477 50.1315 19.1393 50.1445 18.9961C50.1576 18.8529 50.1706 18.7227 50.1836 18.6055C50.2096 18.4883 50.2357 18.3776 50.2617 18.2734C50.2878 18.1562 50.3008 18.026 50.3008 17.8828C50.3138 17.7266 50.3398 17.5508 50.3789 17.3555C50.418 17.1602 50.457 16.9583 50.4961 16.75C50.6003 16.2292 50.6393 15.8385 50.6133 15.5781C50.5872 15.3177 50.6068 15.0964 50.6719 14.9141C50.75 14.7318 50.8346 14.569 50.9258 14.4258C51.1602 14.0482 51.2708 13.7422 51.2578 13.5078C51.2448 13.2604 51.2318 13.0716 51.2188 12.9414C51.2188 12.7982 51.2253 12.6549 51.2383 12.5117C51.3034 11.8086 51.6354 10.7083 52.2344 9.21094C52.2734 9.06771 52.3971 8.95703 52.6055 8.87891C52.8138 8.80078 53.0221 8.79427 53.2305 8.85938C53.4518 8.91146 53.6276 8.9375 53.7578 8.9375C53.901 8.92448 54.0182 8.8724 54.1094 8.78125C54.2135 8.67708 54.3177 8.57943 54.4219 8.48828C54.5391 8.39714 54.6758 8.32552 54.832 8.27344C54.9883 8.20833 55.1641 8.17578 55.3594 8.17578C55.5547 8.17578 55.763 8.23438 55.9844 8.35156C56.349 8.54688 56.5898 8.72917 56.707 8.89844C56.8242 9.06771 56.9023 9.20443 56.9414 9.30859C56.9805 9.41276 57.0456 9.55599 57.1367 9.73828C57.2279 9.92057 57.2669 10.0833 57.2539 10.2266C57.2539 10.3698 57.2799 10.5391 57.332 10.7344C57.3841 10.9297 57.3841 11.1576 57.332 11.418C57.2799 11.6784 57.2799 11.9388 57.332 12.1992C57.3841 12.4466 57.4102 12.6159 57.4102 12.707C57.4102 12.7982 57.4167 12.8828 57.4297 12.9609C57.4427 13.1823 57.4883 13.3776 57.5664 13.5469C57.6445 13.7292 57.6641 13.957 57.625 14.2305C57.599 14.4909 57.5924 14.7122 57.6055 14.8945C57.6315 15.0638 57.7031 15.2396 57.8203 15.4219C58.0417 15.7734 58.1198 16.1641 58.0547 16.5938C58.0417 16.7109 58.0417 16.8411 58.0547 16.9844C58.0807 17.1146 58.0938 17.2383 58.0938 17.3555C58.0938 17.4596 58.0807 17.5964 58.0547 17.7656C58.0156 18.013 58.0221 18.3125 58.0742 18.6641C58.1523 19.3151 58.1914 19.7513 58.1914 19.9727C58.1914 20.194 58.1979 20.3828 58.2109 20.5391C58.224 20.6823 58.237 20.8385 58.25 21.0078C58.2891 21.4505 58.2891 21.8997 58.25 22.3555C58.224 22.7982 58.0872 23.0521 57.8398 23.1172ZM54.8516 15.2461C54.8776 14.9987 54.8646 14.6927 54.8125 14.3281C54.7734 13.9635 54.7539 13.6966 54.7539 13.5273C54.7539 13.3451 54.7409 13.1888 54.7148 13.0586C54.6758 12.8503 54.5651 12.8242 54.3828 12.9805C54.1745 12.7721 54.0052 12.7656 53.875 12.9609C53.7839 13.1042 53.7383 13.3385 53.7383 13.6641C53.7122 13.8854 53.6602 14.0872 53.582 14.2695C53.5169 14.4518 53.4714 14.6536 53.4453 14.875C53.4062 15.1354 53.3346 15.4544 53.2305 15.832C53.1393 16.2096 53.1523 16.4896 53.2695 16.6719C53.3997 16.8542 53.556 16.9193 53.7383 16.8672C53.9206 16.8151 54.0573 16.7891 54.1484 16.7891C54.2396 16.776 54.3177 16.763 54.3828 16.75C54.5391 16.737 54.6562 16.6784 54.7344 16.5742C54.8255 16.457 54.8711 16.3594 54.8711 16.2812C54.8841 16.1901 54.8841 16.099 54.8711 16.0078C54.832 15.7474 54.8255 15.4935 54.8516 15.2461ZM62.7812 20.207C62.9375 20.1419 63.1068 20.1094 63.2891 20.1094C63.4714 20.1094 63.6146 20.1354 63.7188 20.1875C63.8229 20.2396 63.9271 20.2982 64.0312 20.3633C64.2786 20.5326 64.5456 20.6172 64.832 20.6172C65.1185 20.6042 65.3594 20.5911 65.5547 20.5781C65.75 20.5521 65.9388 20.6042 66.1211 20.7344C66.3424 20.9297 66.4401 21.2552 66.4141 21.7109C66.388 22.1406 66.2904 22.4206 66.1211 22.5508C65.9518 22.668 65.7956 22.7266 65.6523 22.7266C65.5091 22.7266 65.3659 22.7201 65.2227 22.707C65.0794 22.681 64.9427 22.6615 64.8125 22.6484C64.6823 22.6354 64.5716 22.668 64.4805 22.7461C64.0117 23.0716 63.6406 23.1042 63.3672 22.8438C63.237 22.7005 63.0677 22.6354 62.8594 22.6484C62.651 22.6615 62.4622 22.707 62.293 22.7852C62.1367 22.8503 61.974 22.9089 61.8047 22.9609C61.0365 23.2474 60.5156 23.0391 60.2422 22.3359C60.1901 22.1927 60.1445 22.0625 60.1055 21.9453C60.0794 21.8151 60.0469 21.7109 60.0078 21.6328C59.9167 21.4505 59.8906 21.138 59.9297 20.6953C59.9688 20.0833 59.9622 19.6341 59.9102 19.3477C59.8581 19.0612 59.8125 18.8333 59.7734 18.6641C59.6823 18.2214 59.6432 17.8763 59.6562 17.6289C59.6953 17.1992 59.6758 16.737 59.5977 16.2422C59.5846 16.099 59.6302 15.9036 59.7344 15.6562C60.0729 14.875 60.0729 14.276 59.7344 13.8594C59.6693 13.7812 59.6107 13.7096 59.5586 13.6445C59.5065 13.5794 59.4805 13.4883 59.4805 13.3711C59.3633 12.3164 59.3047 10.9622 59.3047 9.30859C59.3047 9.16536 59.3698 9.02865 59.5 8.89844C59.7474 8.65104 59.9427 8.54036 60.0859 8.56641C60.5677 8.69661 60.9974 8.71615 61.375 8.625C61.7656 8.52083 62.1042 8.46875 62.3906 8.46875C62.6771 8.45573 62.9245 8.58594 63.1328 8.85938C63.6016 9.51042 63.7188 10.2852 63.4844 11.1836C63.4193 11.3919 63.3932 11.5938 63.4062 11.7891C63.4193 11.9714 63.3802 12.1732 63.2891 12.3945C63.2109 12.6029 63.1784 12.7982 63.1914 12.9805C63.2044 13.1628 63.224 13.4167 63.25 13.7422C63.3151 14.5885 63.1979 15.2461 62.8984 15.7148C62.7422 15.9622 62.6706 16.2617 62.6836 16.6133C62.7096 16.9648 62.7292 17.2578 62.7422 17.4922C62.7682 17.7135 62.7682 17.9609 62.7422 18.2344C62.7292 18.4948 62.7227 18.8073 62.7227 19.1719C62.7227 19.5234 62.7422 19.8685 62.7812 20.207ZM69.9297 20.207C70.0859 20.1419 70.2552 20.1094 70.4375 20.1094C70.6198 20.1094 70.763 20.1354 70.8672 20.1875C70.9714 20.2396 71.0755 20.2982 71.1797 20.3633C71.4271 20.5326 71.694 20.6172 71.9805 20.6172C72.2669 20.6042 72.5078 20.5911 72.7031 20.5781C72.8984 20.5521 73.0872 20.6042 73.2695 20.7344C73.4909 20.9297 73.5885 21.2552 73.5625 21.7109C73.5365 22.1406 73.4388 22.4206 73.2695 22.5508C73.1003 22.668 72.944 22.7266 72.8008 22.7266C72.6576 22.7266 72.5143 22.7201 72.3711 22.707C72.2279 22.681 72.0911 22.6615 71.9609 22.6484C71.8307 22.6354 71.7201 22.668 71.6289 22.7461C71.1602 23.0716 70.7891 23.1042 70.5156 22.8438C70.3854 22.7005 70.2161 22.6354 70.0078 22.6484C69.7995 22.6615 69.6107 22.707 69.4414 22.7852C69.2852 22.8503 69.1224 22.9089 68.9531 22.9609C68.1849 23.2474 67.6641 23.0391 67.3906 22.3359C67.3385 22.1927 67.293 22.0625 67.2539 21.9453C67.2279 21.8151 67.1953 21.7109 67.1562 21.6328C67.0651 21.4505 67.0391 21.138 67.0781 20.6953C67.1172 20.0833 67.1107 19.6341 67.0586 19.3477C67.0065 19.0612 66.9609 18.8333 66.9219 18.6641C66.8307 18.2214 66.7917 17.8763 66.8047 17.6289C66.8438 17.1992 66.8242 16.737 66.7461 16.2422C66.7331 16.099 66.7786 15.9036 66.8828 15.6562C67.2214 14.875 67.2214 14.276 66.8828 13.8594C66.8177 13.7812 66.7591 13.7096 66.707 13.6445C66.6549 13.5794 66.6289 13.4883 66.6289 13.3711C66.5117 12.3164 66.4531 10.9622 66.4531 9.30859C66.4531 9.16536 66.5182 9.02865 66.6484 8.89844C66.8958 8.65104 67.0911 8.54036 67.2344 8.56641C67.7161 8.69661 68.1458 8.71615 68.5234 8.625C68.9141 8.52083 69.2526 8.46875 69.5391 8.46875C69.8255 8.45573 70.0729 8.58594 70.2812 8.85938C70.75 9.51042 70.8672 10.2852 70.6328 11.1836C70.5677 11.3919 70.5417 11.5938 70.5547 11.7891C70.5677 11.9714 70.5286 12.1732 70.4375 12.3945C70.3594 12.6029 70.3268 12.7982 70.3398 12.9805C70.3529 13.1628 70.3724 13.4167 70.3984 13.7422C70.4635 14.5885 70.3464 15.2461 70.0469 15.7148C69.8906 15.9622 69.819 16.2617 69.832 16.6133C69.8581 16.9648 69.8776 17.2578 69.8906 17.4922C69.9167 17.7135 69.9167 17.9609 69.8906 18.2344C69.8776 18.4948 69.8711 18.8073 69.8711 19.1719C69.8711 19.5234 69.8906 19.8685 69.9297 20.207ZM73.7188 12.082C73.7057 11.9128 73.6992 11.7435 73.6992 11.5742C73.6992 11.4049 73.7253 11.2096 73.7773 10.9883C73.8294 10.7539 73.9596 10.5456 74.168 10.3633C74.3893 10.168 74.5781 9.97917 74.7344 9.79688C74.8906 9.60156 75.0273 9.40625 75.1445 9.21094C75.2617 9.01562 75.4049 8.85938 75.5742 8.74219C76.1602 8.33854 76.9805 8.18229 78.0352 8.27344C78.4648 8.3125 78.9206 8.46875 79.4023 8.74219C79.6367 8.8724 79.8385 9.11328 80.0078 9.46484C80.1771 9.80339 80.2943 10.0378 80.3594 10.168C80.4245 10.2982 80.5091 10.3958 80.6133 10.4609C80.7174 10.513 80.8086 10.5911 80.8867 10.6953C80.9779 10.7995 81.069 10.9688 81.1602 11.2031C81.2643 11.4245 81.3555 11.6849 81.4336 11.9844C81.6419 12.6745 81.7331 13.2539 81.707 13.7227C81.681 14.1914 81.6615 14.6667 81.6484 15.1484C81.6224 16.0078 81.5378 16.6263 81.3945 17.0039C81.2513 17.3815 81.1406 17.7005 81.0625 17.9609C80.9974 18.2083 80.9583 18.4362 80.9453 18.6445C80.9323 18.8529 80.9258 19.0547 80.9258 19.25C80.8997 19.7708 80.8607 20.0833 80.8086 20.1875C80.7695 20.2917 80.6979 20.3958 80.5938 20.5C80.4896 20.6042 80.3724 20.7083 80.2422 20.8125C80.125 20.9036 80.0078 20.9948 79.8906 21.0859C79.7734 21.1771 79.6888 21.2552 79.6367 21.3203C79.5846 21.3724 79.5195 21.4505 79.4414 21.5547C79.3763 21.6589 79.3047 21.7695 79.2266 21.8867C79.1615 22.0039 79.0964 22.1146 79.0312 22.2188C78.9792 22.3099 78.9401 22.3815 78.9141 22.4336C78.888 22.4727 78.8424 22.5508 78.7773 22.668C78.7122 22.7852 78.6341 22.9089 78.543 23.0391C78.0352 23.6641 77.5534 23.6901 77.0977 23.1172C77.0586 23.0521 76.9935 23.0195 76.9023 23.0195C76.8242 23.0195 76.7266 23.0456 76.6094 23.0977C76.5052 23.1628 76.3555 23.1628 76.1602 23.0977C75.9648 23.0326 75.8086 22.9284 75.6914 22.7852C75.5872 22.6289 75.4831 22.5052 75.3789 22.4141C75.2878 22.3229 75.1966 22.2513 75.1055 22.1992C75.0143 22.1471 74.9232 22.1016 74.832 22.0625C74.5846 21.9323 74.4544 21.8281 74.4414 21.75C74.4284 21.6589 74.4154 21.5742 74.4023 21.4961C74.4023 21.418 74.3893 21.3203 74.3633 21.2031C74.2591 20.5781 74.0052 19.6927 73.6016 18.5469C73.2891 17.6875 73.2044 16.7956 73.3477 15.8711C73.4518 15.194 73.5495 14.6276 73.6406 14.1719C73.7839 13.4818 73.8359 13 73.7969 12.7266C73.7708 12.4531 73.7448 12.2383 73.7188 12.082ZM77.5078 13.1953C77.2734 13.2083 77.1172 13.2995 77.0391 13.4688C76.9609 13.625 76.9023 13.7812 76.8633 13.9375C76.8242 14.0807 76.7721 14.1979 76.707 14.2891C76.6549 14.3802 76.6029 14.4714 76.5508 14.5625C76.3294 14.888 76.3034 15.2266 76.4727 15.5781C76.7201 16.0859 76.8503 16.4245 76.8633 16.5938C76.8763 16.75 76.8893 16.9844 76.9023 17.2969C76.9154 17.5964 76.9414 17.9089 76.9805 18.2344C77.0977 19.0547 77.2734 19.4648 77.5078 19.4648C77.638 19.4648 77.7617 19.3151 77.8789 19.0156C77.9049 18.9505 77.918 18.8398 77.918 18.6836C77.931 18.5273 77.957 18.3451 77.9961 18.1367C78.1393 17.3945 78.1914 16.8802 78.1523 16.5938C78.1263 16.3073 78.1068 16.0534 78.0938 15.832C78.0938 15.6107 78.0938 15.3828 78.0938 15.1484V13.957C78.0938 13.6706 78.0547 13.4688 77.9766 13.3516C77.9115 13.2214 77.7552 13.1693 77.5078 13.1953ZM93.4453 9.28906C93.5755 9.35417 93.6602 9.42578 93.6992 9.50391C93.7513 9.56901 93.8099 9.64062 93.875 9.71875C93.9401 9.78385 93.9727 9.84896 93.9727 9.91406C93.9727 9.97917 93.9661 10.0508 93.9531 10.1289C93.9401 10.207 93.9206 10.2852 93.8945 10.3633C93.8815 10.4284 93.888 10.5065 93.9141 10.5977C93.9531 10.6888 93.9271 10.8125 93.8359 10.9688C93.7448 11.112 93.6341 11.3398 93.5039 11.6523C93.3737 11.9648 93.276 12.3164 93.2109 12.707C93.1589 13.0977 93.1133 13.4883 93.0742 13.8789C93.0352 14.2565 92.9961 14.6276 92.957 14.9922C92.931 15.3438 92.8659 15.6628 92.7617 15.9492C92.6706 16.2357 92.5924 16.5547 92.5273 16.9062C92.4753 17.2448 92.4232 17.5964 92.3711 17.9609C92.2409 18.8854 92.1302 19.4844 92.0391 19.7578C91.9479 20.0312 91.9023 20.2135 91.9023 20.3047C91.9023 20.3958 91.8893 20.5065 91.8633 20.6367C91.7982 20.9753 91.6484 21.2943 91.4141 21.5938C91.1927 21.8802 91.056 22.1081 91.0039 22.2773C90.9518 22.4466 90.8997 22.6094 90.8477 22.7656C90.8086 22.9089 90.7565 23.026 90.6914 23.1172C90.6263 23.2214 90.5286 23.2669 90.3984 23.2539C90.2812 23.2409 90.1966 23.2214 90.1445 23.1953C90.1055 23.1693 90.0664 23.1432 90.0273 23.1172C89.8971 22.974 89.7279 22.9089 89.5195 22.9219C89.3242 22.9349 89.181 22.9349 89.0898 22.9219C88.8815 22.9089 88.7448 22.8242 88.6797 22.668C88.6276 22.5117 88.5755 22.2643 88.5234 21.9258C88.4844 21.5872 88.4388 21.2422 88.3867 20.8906C88.2305 20.0182 88.0482 19.582 87.8398 19.582C87.7227 19.582 87.6576 19.6732 87.6445 19.8555C87.6315 20.0378 87.6185 20.1875 87.6055 20.3047C87.6055 20.4219 87.5924 20.5586 87.5664 20.7148C87.5404 20.8711 87.4883 21.1055 87.4102 21.418C87.332 21.7305 87.2409 22.0299 87.1367 22.3164C86.8633 23.0065 86.5378 23.3516 86.1602 23.3516C85.8607 23.3516 85.6458 23.2409 85.5156 23.0195C85.4635 22.9284 85.4115 22.8372 85.3594 22.7461C85.3073 22.6419 85.2096 22.5573 85.0664 22.4922C84.9362 22.4141 84.8255 22.3359 84.7344 22.2578C84.6432 22.1797 84.5716 22.0755 84.5195 21.9453C84.4414 21.776 84.3763 21.4766 84.3242 21.0469C84.2852 20.6042 84.2266 20.2591 84.1484 20.0117C84.0703 19.7643 83.9857 19.5234 83.8945 19.2891C83.6862 18.6771 83.582 18.2279 83.582 17.9414C83.5951 17.6549 83.582 17.4076 83.543 17.1992C83.5169 16.9909 83.4779 16.7891 83.4258 16.5938C83.3737 16.3984 83.3086 16.1966 83.2305 15.9883C83.1654 15.7799 83.1003 15.5586 83.0352 15.3242C82.9831 15.0768 82.918 14.849 82.8398 14.6406C82.7747 14.4193 82.7096 14.2109 82.6445 14.0156C82.5143 13.5599 82.5078 13.1628 82.625 12.8242C82.7552 12.4857 82.7747 12.1406 82.6836 11.7891C82.5924 11.4375 82.4753 11.0924 82.332 10.7539C82.2018 10.4023 82.0911 10.0833 82 9.79688C81.8958 9.4974 81.9023 9.25651 82.0195 9.07422C82.1367 8.87891 82.2995 8.76172 82.5078 8.72266C82.7292 8.68359 82.9505 8.68359 83.1719 8.72266C83.3932 8.7487 83.6081 8.78776 83.8164 8.83984C84.1419 8.91797 84.3633 8.92448 84.4805 8.85938C84.6107 8.78125 84.7148 8.72917 84.793 8.70312C84.8711 8.66406 84.9622 8.64453 85.0664 8.64453C85.1706 8.64453 85.3008 8.6901 85.457 8.78125C85.6263 8.8724 85.737 8.97656 85.7891 9.09375C85.8542 9.21094 85.8932 9.34766 85.9062 9.50391C85.9323 9.66016 85.9453 9.83594 85.9453 10.0312C85.9453 10.2135 85.9909 10.487 86.082 10.8516C86.3685 11.9323 86.4141 12.8958 86.2188 13.7422C86.1016 14.237 86.082 14.6471 86.1602 14.9727C86.2383 15.2852 86.349 15.4284 86.4922 15.4023C86.6224 15.3763 86.707 15.2786 86.7461 15.1094C86.7852 14.9271 86.8047 14.7057 86.8047 14.4453C86.8177 14.1719 86.8242 13.8854 86.8242 13.5859C86.8242 13.2734 86.8503 12.987 86.9023 12.7266C86.9544 12.4661 86.9935 12.2643 87.0195 12.1211C87.0456 11.9779 87.0716 11.8672 87.0977 11.7891C87.1628 11.6328 87.2474 11.5352 87.3516 11.4961C87.2995 10.0768 87.5143 9.13932 87.9961 8.68359C88.0872 8.60547 88.1914 8.56641 88.3086 8.56641C88.4388 8.56641 88.5625 8.65104 88.6797 8.82031C88.7969 8.98958 88.862 9.28906 88.875 9.71875C88.901 10.4089 88.9661 11.0794 89.0703 11.7305C89.1745 12.3815 89.2461 12.8568 89.2852 13.1562C89.3372 13.4557 89.3893 13.7292 89.4414 13.9766C89.6107 14.9922 89.7995 15.1484 90.0078 14.4453C90.1771 13.8464 90.2617 13.3125 90.2617 12.8438C90.2617 12.375 90.2292 12.1081 90.1641 12.043C89.8776 11.7826 89.8776 11.418 90.1641 10.9492C90.2812 10.7409 90.3464 10.4805 90.3594 10.168C90.4115 9.54297 90.457 9.17839 90.4961 9.07422C90.5482 8.95703 90.6328 8.85286 90.75 8.76172C90.8802 8.65755 91.0169 8.57943 91.1602 8.52734C91.5247 8.38411 91.8242 8.44922 92.0586 8.72266C92.1888 8.89193 92.3971 8.98307 92.6836 8.99609C92.9701 9.00911 93.1328 9.04167 93.1719 9.09375C93.224 9.14583 93.3151 9.21094 93.4453 9.28906ZM94.2852 11.3789L94.3242 10.2656C94.3242 10.0833 94.3047 9.90104 94.2656 9.71875C94.2396 9.53646 94.2852 9.34766 94.4023 9.15234C94.5326 8.94401 94.7214 8.76172 94.9688 8.60547C95.2161 8.44922 95.4961 8.37109 95.8086 8.37109C96.1211 8.37109 96.3685 8.42318 96.5508 8.52734C96.7331 8.63151 96.9023 8.71615 97.0586 8.78125C97.2148 8.84635 97.3906 8.89844 97.5859 8.9375C98.0026 9.0026 98.4062 8.94401 98.7969 8.76172C99.2266 8.55339 99.5716 8.56641 99.832 8.80078C100.105 8.8138 100.392 8.78776 100.691 8.72266C101.186 8.61849 101.525 8.61198 101.707 8.70312C102.111 8.9375 102.176 9.40625 101.902 10.1094C101.863 10.2135 101.844 10.3047 101.844 10.3828C101.844 10.4609 101.844 10.5391 101.844 10.6172C101.844 10.8516 101.824 11.0273 101.785 11.1445C101.746 11.2617 101.727 11.3594 101.727 11.4375C101.727 11.5156 101.727 11.6068 101.727 11.7109C101.753 11.9193 101.72 12.1211 101.629 12.3164C101.577 12.4336 101.551 12.5312 101.551 12.6094C101.551 12.6745 101.551 12.7396 101.551 12.8047C101.551 12.974 101.46 13.1367 101.277 13.293C100.978 13.6055 100.73 13.7617 100.535 13.7617C100.496 13.7617 100.457 13.7487 100.418 13.7227C100.379 13.6966 100.32 13.6706 100.242 13.6445C99.9297 13.5404 99.5977 13.4753 99.2461 13.4492C98.9076 13.4232 98.6602 13.4297 98.5039 13.4688C98.1133 13.5469 97.8724 13.7357 97.7812 14.0352C97.6771 14.3477 97.7031 14.5885 97.8594 14.7578C97.9245 14.8359 97.9961 14.888 98.0742 14.9141C98.1523 14.9401 98.224 14.9466 98.2891 14.9336C98.3672 14.9076 98.4648 14.9076 98.582 14.9336C98.7122 14.9596 98.8424 14.9922 98.9727 15.0312C99.3242 15.1094 99.5586 15.1224 99.6758 15.0703C99.806 15.0052 99.8906 14.9792 99.9297 14.9922C99.9818 15.0052 100.021 15.0247 100.047 15.0508C100.138 15.1419 100.223 15.1875 100.301 15.1875C100.509 15.1745 100.652 15.2656 100.73 15.4609C100.809 15.6432 100.796 15.8711 100.691 16.1445C100.691 16.1836 100.672 16.2812 100.633 16.4375C100.542 16.75 100.496 16.9648 100.496 17.082C100.509 17.1992 100.49 17.3229 100.438 17.4531C100.385 17.5703 100.314 17.6745 100.223 17.7656C100.001 17.9609 99.7604 18.0195 99.5 17.9414C99.3828 17.8893 99.2786 17.8177 99.1875 17.7266C98.5234 17.5312 98.0742 17.5768 97.8398 17.8633C97.7096 18.0195 97.638 18.1562 97.625 18.2734C97.612 18.3906 97.6055 18.599 97.6055 18.8984V19.6211C97.7747 19.7383 97.931 19.875 98.0742 20.0312C98.2174 20.1745 98.3932 20.2526 98.6016 20.2656C98.8099 20.2786 98.9922 20.2656 99.1484 20.2266C99.3177 20.1745 99.474 20.1224 99.6172 20.0703C99.9297 19.9401 100.216 19.9206 100.477 20.0117C100.737 20.0898 100.9 20.2005 100.965 20.3438C101.03 20.487 101.043 20.6758 101.004 20.9102C100.965 21.1445 100.945 21.3203 100.945 21.4375C100.958 21.5417 100.965 21.6393 100.965 21.7305C100.965 21.9518 100.88 22.1667 100.711 22.375C100.529 22.6484 100.359 22.8177 100.203 22.8828C100.047 22.9349 99.8451 22.9479 99.5977 22.9219C99.3503 22.8828 99.1484 22.8958 98.9922 22.9609C98.8359 23.013 98.6927 23.0846 98.5625 23.1758C98.4453 23.2669 98.3281 23.3516 98.2109 23.4297C98.0156 23.5599 97.7943 23.5599 97.5469 23.4297C97.4557 23.3776 97.3646 23.3255 97.2734 23.2734C97.0391 23.1562 96.7526 23.1042 96.4141 23.1172C96.0755 23.1432 95.776 23.0521 95.5156 22.8438C95.2552 22.6224 95.1185 22.3555 95.1055 22.043C95.1055 21.7305 95.125 21.5091 95.1641 21.3789C95.2031 21.2357 95.2422 21.125 95.2812 21.0469C95.3333 20.8776 95.3073 20.7474 95.2031 20.6562C94.8906 20.4089 94.7799 20.0833 94.8711 19.6797C94.9102 19.4714 94.9492 19.3086 94.9883 19.1914C95.0273 19.0742 95.0339 18.9505 95.0078 18.8203C94.9818 18.6771 94.9688 18.5534 94.9688 18.4492C94.9818 18.332 94.9818 18.2214 94.9688 18.1172C94.9427 17.9089 94.8516 17.7917 94.6953 17.7656C94.5 17.7396 94.3698 17.5312 94.3047 17.1406C94.2266 16.763 94.2526 16.3854 94.3828 16.0078C94.526 15.6302 94.5846 15.3372 94.5586 15.1289C94.5326 14.9076 94.513 14.7057 94.5 14.5234L94.5195 13.7617C94.5195 13.3841 94.487 13.1302 94.4219 13C94.3568 12.8698 94.3372 12.681 94.3633 12.4336C94.3893 12.1732 94.3828 11.9779 94.3438 11.8477C94.3047 11.7044 94.2852 11.5482 94.2852 11.3789ZM102.684 11.3789L102.723 10.2656C102.723 10.0833 102.703 9.90104 102.664 9.71875C102.638 9.53646 102.684 9.34766 102.801 9.15234C102.931 8.94401 103.12 8.76172 103.367 8.60547C103.615 8.44922 103.895 8.37109 104.207 8.37109C104.52 8.37109 104.767 8.42318 104.949 8.52734C105.132 8.63151 105.301 8.71615 105.457 8.78125C105.613 8.84635 105.789 8.89844 105.984 8.9375C106.401 9.0026 106.805 8.94401 107.195 8.76172C107.625 8.55339 107.97 8.56641 108.23 8.80078C108.504 8.8138 108.79 8.78776 109.09 8.72266C109.585 8.61849 109.923 8.61198 110.105 8.70312C110.509 8.9375 110.574 9.40625 110.301 10.1094C110.262 10.2135 110.242 10.3047 110.242 10.3828C110.242 10.4609 110.242 10.5391 110.242 10.6172C110.242 10.8516 110.223 11.0273 110.184 11.1445C110.145 11.2617 110.125 11.3594 110.125 11.4375C110.125 11.5156 110.125 11.6068 110.125 11.7109C110.151 11.9193 110.118 12.1211 110.027 12.3164C109.975 12.4336 109.949 12.5312 109.949 12.6094C109.949 12.6745 109.949 12.7396 109.949 12.8047C109.949 12.974 109.858 13.1367 109.676 13.293C109.376 13.6055 109.129 13.7617 108.934 13.7617C108.895 13.7617 108.855 13.7487 108.816 13.7227C108.777 13.6966 108.719 13.6706 108.641 13.6445C108.328 13.5404 107.996 13.4753 107.645 13.4492C107.306 13.4232 107.059 13.4297 106.902 13.4688C106.512 13.5469 106.271 13.7357 106.18 14.0352C106.076 14.3477 106.102 14.5885 106.258 14.7578C106.323 14.8359 106.395 14.888 106.473 14.9141C106.551 14.9401 106.622 14.9466 106.688 14.9336C106.766 14.9076 106.863 14.9076 106.98 14.9336C107.111 14.9596 107.241 14.9922 107.371 15.0312C107.723 15.1094 107.957 15.1224 108.074 15.0703C108.204 15.0052 108.289 14.9792 108.328 14.9922C108.38 15.0052 108.419 15.0247 108.445 15.0508C108.536 15.1419 108.621 15.1875 108.699 15.1875C108.908 15.1745 109.051 15.2656 109.129 15.4609C109.207 15.6432 109.194 15.8711 109.09 16.1445C109.09 16.1836 109.07 16.2812 109.031 16.4375C108.94 16.75 108.895 16.9648 108.895 17.082C108.908 17.1992 108.888 17.3229 108.836 17.4531C108.784 17.5703 108.712 17.6745 108.621 17.7656C108.4 17.9609 108.159 18.0195 107.898 17.9414C107.781 17.8893 107.677 17.8177 107.586 17.7266C106.922 17.5312 106.473 17.5768 106.238 17.8633C106.108 18.0195 106.036 18.1562 106.023 18.2734C106.01 18.3906 106.004 18.599 106.004 18.8984V19.6211C106.173 19.7383 106.329 19.875 106.473 20.0312C106.616 20.1745 106.792 20.2526 107 20.2656C107.208 20.2786 107.391 20.2656 107.547 20.2266C107.716 20.1745 107.872 20.1224 108.016 20.0703C108.328 19.9401 108.615 19.9206 108.875 20.0117C109.135 20.0898 109.298 20.2005 109.363 20.3438C109.428 20.487 109.441 20.6758 109.402 20.9102C109.363 21.1445 109.344 21.3203 109.344 21.4375C109.357 21.5417 109.363 21.6393 109.363 21.7305C109.363 21.9518 109.279 22.1667 109.109 22.375C108.927 22.6484 108.758 22.8177 108.602 22.8828C108.445 22.9349 108.243 22.9479 107.996 22.9219C107.749 22.8828 107.547 22.8958 107.391 22.9609C107.234 23.013 107.091 23.0846 106.961 23.1758C106.844 23.2669 106.727 23.3516 106.609 23.4297C106.414 23.5599 106.193 23.5599 105.945 23.4297C105.854 23.3776 105.763 23.3255 105.672 23.2734C105.438 23.1562 105.151 23.1042 104.812 23.1172C104.474 23.1432 104.174 23.0521 103.914 22.8438C103.654 22.6224 103.517 22.3555 103.504 22.043C103.504 21.7305 103.523 21.5091 103.562 21.3789C103.602 21.2357 103.641 21.125 103.68 21.0469C103.732 20.8776 103.706 20.7474 103.602 20.6562C103.289 20.4089 103.178 20.0833 103.27 19.6797C103.309 19.4714 103.348 19.3086 103.387 19.1914C103.426 19.0742 103.432 18.9505 103.406 18.8203C103.38 18.6771 103.367 18.5534 103.367 18.4492C103.38 18.332 103.38 18.2214 103.367 18.1172C103.341 17.9089 103.25 17.7917 103.094 17.7656C102.898 17.7396 102.768 17.5312 102.703 17.1406C102.625 16.763 102.651 16.3854 102.781 16.0078C102.924 15.6302 102.983 15.3372 102.957 15.1289C102.931 14.9076 102.911 14.7057 102.898 14.5234L102.918 13.7617C102.918 13.3841 102.885 13.1302 102.82 13C102.755 12.8698 102.736 12.681 102.762 12.4336C102.788 12.1732 102.781 11.9779 102.742 11.8477C102.703 11.7044 102.684 11.5482 102.684 11.3789ZM118.191 8.42969C118.595 8.3125 118.888 8.35807 119.07 8.56641C119.409 8.5013 119.721 8.57943 120.008 8.80078C120.294 9.02214 120.366 9.44531 120.223 10.0703C120.132 10.3828 120.105 10.6042 120.145 10.7344C120.184 10.8646 120.236 10.9948 120.301 11.125C120.379 11.2552 120.405 11.4115 120.379 11.5938C120.353 11.763 120.32 11.9518 120.281 12.1602C120.151 12.7461 120.125 13.2214 120.203 13.5859C120.398 14.4453 120.32 15.3438 119.969 16.2812C119.591 17.3099 119.474 18.5469 119.617 19.9922C119.734 21.0339 119.773 21.7174 119.734 22.043C119.708 22.3555 119.637 22.6094 119.52 22.8047C119.402 23 119.207 23.0977 118.934 23.0977C118.465 23.0977 118.139 22.9609 117.957 22.6875C117.853 22.5312 117.801 22.3294 117.801 22.082C117.801 21.8346 117.762 21.6133 117.684 21.418C117.618 21.2227 117.534 21.0404 117.43 20.8711C117.182 20.5065 116.948 20.2526 116.727 20.1094C116.362 19.862 116.082 19.2695 115.887 18.332C115.77 17.6419 115.62 17.0755 115.438 16.6328C115.385 16.5026 115.346 16.3659 115.32 16.2227C115.294 16.0664 115.268 15.9167 115.242 15.7734C115.164 15.4609 115.027 15.3047 114.832 15.3047C114.533 15.3047 114.415 15.7344 114.48 16.5938C114.493 16.776 114.52 16.9453 114.559 17.1016C114.611 17.2448 114.617 17.4206 114.578 17.6289C114.539 17.8372 114.487 18.0521 114.422 18.2734C114.266 18.8464 114.233 19.2695 114.324 19.543C114.415 19.8555 114.448 20.1875 114.422 20.5391C114.396 20.8776 114.344 21.1445 114.266 21.3398C114.188 21.5221 114.051 21.6523 113.855 21.7305C113.738 21.9388 113.641 22.1797 113.562 22.4531C113.484 22.7135 113.426 22.8893 113.387 22.9805C113.361 23.0716 113.322 23.1237 113.27 23.1367C113.048 23.2148 112.82 23.2018 112.586 23.0977C112.365 22.9935 112.221 22.8503 112.156 22.668C112.091 22.4727 112.059 22.2904 112.059 22.1211C112.072 21.9518 112.052 21.8021 112 21.6719C111.961 21.5286 111.941 21.4115 111.941 21.3203C111.954 21.2292 111.961 21.138 111.961 21.0469C111.987 20.8385 111.954 20.6823 111.863 20.5781C111.746 20.4479 111.681 20.2721 111.668 20.0508C111.668 19.8294 111.668 19.6406 111.668 19.4844C111.668 19.3281 111.681 19.1979 111.707 19.0938C111.798 18.8464 111.837 18.4688 111.824 17.9609C111.785 17.0104 111.668 16.4375 111.473 16.2422C111.225 15.9948 111.089 15.5391 111.062 14.875C111.049 14.7188 111.056 14.5755 111.082 14.4453C111.121 14.3021 111.128 14.1589 111.102 14.0156C111.089 13.8724 111.115 13.7292 111.18 13.5859C111.284 13.3125 111.316 12.9284 111.277 12.4336C111.238 11.9258 111.212 11.5677 111.199 11.3594C111.199 11.138 111.186 10.9102 111.16 10.6758C111.147 10.4284 111.167 10.2135 111.219 10.0312C111.284 9.83594 111.388 9.66667 111.531 9.52344C111.857 9.17188 112.312 8.99609 112.898 8.99609C113.159 8.8138 113.458 8.67057 113.797 8.56641C114.148 8.46224 114.441 8.45573 114.676 8.54688C114.91 8.63802 115.073 8.78125 115.164 8.97656C115.255 9.17188 115.327 9.38021 115.379 9.60156C115.444 9.82292 115.503 10.0508 115.555 10.2852C115.62 10.5065 115.724 10.6888 115.867 10.832C116.01 10.9753 116.115 11.151 116.18 11.3594C116.245 11.5547 116.303 11.7435 116.355 11.9258C116.408 12.1081 116.46 12.2643 116.512 12.3945C116.564 12.5117 116.648 12.5703 116.766 12.5703C116.883 12.5703 116.948 12.4076 116.961 12.082C116.987 11.7435 116.993 11.3594 116.98 10.9297C116.98 10.5 116.974 10.0833 116.961 9.67969C116.961 9.26302 117 8.96354 117.078 8.78125C117.156 8.58594 117.293 8.44271 117.488 8.35156C117.697 8.26042 117.931 8.28646 118.191 8.42969Z" fill="white"></path>
  <defs>
    <clipPath id="clip0_1003_3452">
      <rect x="0.75" width="32" height="32" rx="16" fill="white"></rect>
    </clipPath>
  </defs>
</svg>
